<svg display="none" xmlns="http://www.w3.org/2000/svg">

    <symbol id="camera" viewBox="0 0 62 50">
        <g clip-path="url(#clip0_6_114)">
            <path d="M30.897 50.036C22.766 50.036 14.635 50.036 6.505 50.036C6.478 50.036 6.447 50.037 6.415 50.037C2.872 50.037 0 47.165 0 43.622C0 43.59 0 43.559 0.001 43.527V43.532C0.0723333 34.0967 0.0723333 24.6554 0.001 15.208C0.001 15.197 0.001 15.185 0.001 15.172C0.001 11.619 2.881 8.73903 6.434 8.73903C22.767 8.73903 39.082 8.73903 55.415 8.73903C55.497 8.73503 55.593 8.73303 55.69 8.73303C59.085 8.73303 61.837 11.485 61.837 14.88C61.837 14.983 61.834 15.085 61.829 15.186L61.83 15.172V43.532C61.837 43.641 61.841 43.768 61.841 43.897C61.841 47.292 59.089 50.044 55.694 50.044C55.59 50.044 55.486 50.041 55.383 50.036L55.398 50.037L30.897 50.036ZM30.897 43.871C30.939 43.871 30.99 43.872 31.04 43.872C39.014 43.872 45.479 37.407 45.479 29.433C45.479 21.459 39.014 14.994 31.04 14.994C23.078 14.994 16.622 21.438 16.601 29.394V29.396C16.65 37.281 22.988 43.669 30.849 43.799H30.861L30.897 43.871ZM12.384 19.049C12.345 17.928 11.436 17.031 10.313 17.012H10.311C9.176 17.012 8.256 17.932 8.256 19.067C8.256 20.202 9.176 21.122 10.311 21.122C11.448 21.102 12.364 20.186 12.384 19.051V19.049Z"/>
            <path d="M42.28 6.16506H19.532C19.889 4.73506 20.211 3.35906 20.568 1.98306C20.646 0.853064 21.582 -0.0339355 22.725 -0.0339355C22.859 -0.0339355 22.991 -0.0219355 23.118 0.00206446L23.105 6.4455e-05H38.938C39.008 -0.00793555 39.089 -0.0129355 39.17 -0.0129355C40.219 -0.0129355 41.085 0.766065 41.224 1.77606L41.225 1.78706C41.565 3.07406 41.886 4.36006 42.208 5.64706C42.244 5.80806 42.244 5.96906 42.279 6.16506H42.28Z"/>
            <path d="M30.861 43.799C22.902 43.778 16.459 37.322 16.459 29.36C16.459 21.386 22.924 14.921 30.898 14.921C38.872 14.921 45.337 21.386 45.337 29.36C45.337 29.41 45.337 29.46 45.336 29.511V29.503C45.215 37.412 38.785 43.78 30.863 43.799H30.861ZM30.861 39.671C36.556 39.671 41.172 35.055 41.172 29.36C41.172 23.665 36.556 19.049 30.861 19.049C25.179 19.049 20.57 23.645 20.55 29.322V29.324C20.55 29.345 20.55 29.371 20.55 29.396C20.55 35.071 25.15 39.671 30.825 39.671C30.863 39.671 30.901 39.671 30.938 39.67H30.932L30.861 39.671Z"/>
            <path d="M12.384 19.049C12.365 20.174 11.468 21.083 10.35 21.122H10.346C9.211 21.122 8.291 20.202 8.291 19.067C8.291 17.932 9.211 17.012 10.346 17.012C11.455 17.05 12.345 17.94 12.383 19.046V19.05L12.384 19.049Z"/>
            <path d="M31.129 21.1401C35.507 21.2841 39.019 24.8011 39.152 29.1691V29.1821C39.154 29.2201 39.156 29.2651 39.156 29.3111C39.156 30.4431 38.272 31.3681 37.156 31.4341H37.15C37.145 31.4341 37.138 31.4341 37.132 31.4341C35.987 31.4341 35.059 30.5061 35.059 29.3611C35.02 27.1091 33.215 25.2921 30.972 25.2331H30.966C30.949 25.2331 30.93 25.2341 30.91 25.2341C29.785 25.2341 28.873 24.3221 28.873 23.1971C28.873 23.1651 28.874 23.1341 28.875 23.1021V23.1061C28.929 22.0051 29.836 21.1321 30.946 21.1321C31.01 21.1321 31.073 21.1351 31.135 21.1401L31.127 21.1391L31.129 21.1401Z"/>
        </g>
    </symbol> 

   <symbol id="video" viewBox="0 0 60 50">
        <g clip-path="url(#clip0_6_144)">
            <path d="M59.843 1.30696V48.781C59.465 49.535 58.698 50.043 57.812 50.043C57.748 50.043 57.685 50.04 57.622 50.035L57.63 50.036H2.194C2.128 50.044 2.051 50.048 1.973 50.048C0.876 50.048 -0.0130005 49.159 -0.0130005 48.062C-0.0130005 47.984 -0.00900049 47.907 -4.88944e-07 47.831L-0.00100049 47.84C-0.00100049 32.6133 -0.00100049 17.387 -0.00100049 2.16096C-0.00600049 2.10596 -0.0100005 2.04196 -0.0100005 1.97696C-0.0100005 0.879962 0.878999 -0.00903808 1.976 -0.00903808C2.047 -0.00903808 2.116 -0.00503808 2.185 0.00196192L2.176 0.000961917C20.666 0.000961917 39.1447 0.000961917 57.612 0.000961917C57.687 -0.00803808 57.774 -0.0140381 57.863 -0.0140381C58.75 -0.0140381 59.511 0.524962 59.837 1.29296L59.842 1.30696H59.843ZM22.544 24.983V30.575C22.545 30.941 22.596 31.295 22.69 31.631L22.683 31.603C23.038 32.503 23.901 33.128 24.909 33.128C25.419 33.128 25.892 32.968 26.28 32.695L26.272 32.7C29.6 30.784 32.892 28.85 36.185 26.899C36.865 26.531 37.318 25.823 37.318 25.009C37.318 24.195 36.864 23.487 36.196 23.124L36.185 23.118C32.892 21.097 29.513 19.163 26.133 17.212C25.78 16.992 25.351 16.861 24.892 16.861C23.583 16.861 22.523 17.922 22.523 19.23C22.523 19.28 22.525 19.33 22.528 19.379V19.372C22.65 21.236 22.545 23.118 22.545 24.982L22.544 24.983ZM9.443 6.55096V3.57196H3.572V6.55096H9.443ZM3.484 46.376H9.442V43.449H3.484V46.376ZM18.833 3.57096H13.066V6.53296H18.833V3.57096ZM22.456 3.57096V6.53296H28.24V3.48396L22.456 3.57096ZM37.613 6.55096V3.57196H31.846V6.53396L37.613 6.55096ZM47.038 3.57096H41.219V6.53296H47.038V3.57096ZM37.631 46.394V43.554H31.847V46.481L37.631 46.394ZM18.815 46.394V43.554H13.048V46.481L18.815 46.394ZM28.24 46.394V43.554H22.473V46.498L28.24 46.394ZM47.038 43.449H41.219V46.376H47.038V43.449ZM56.289 6.55096V3.48496H50.627V6.55096H56.289ZM56.289 43.449H50.627V46.393H56.306L56.289 43.449Z"/>
        </g>
   </symbol>

   <symbol id="image" viewBox="0 0 66 50">
        <g clip-path="url(#clip0_6_146)">
            <path d="M-1.41598e-05 48.5029V1.49692C0.361986 0.60892 1.21999 -0.00608008 2.21999 -0.00608008C2.27999 -0.00608008 2.33999 -0.00408008 2.39899 0.000919922H2.39099H63.727C63.784 -0.00408008 63.851 -0.00708008 63.918 -0.00708008C65.158 -0.00708008 66.163 0.99792 66.163 2.23792C66.163 2.30492 66.16 2.37192 66.154 2.43692L66.155 2.42892C66.155 11.9029 66.155 21.3779 66.155 30.8339C66.155 36.4749 66.155 42.1149 66.155 47.7559C66.163 47.8219 66.167 47.8989 66.167 47.9769C66.167 49.0759 65.276 49.9669 64.177 49.9669C64.147 49.9669 64.117 49.9659 64.087 49.9649H64.091H2.64499C2.54299 49.9789 2.42599 49.9879 2.30599 49.9879C1.28699 49.9879 0.407986 49.3869 0.00498584 48.5209L-0.00201416 48.5049L-1.41598e-05 48.5029ZM62.066 4.14392H4.12499V32.0919L4.76399 31.6539L15.991 23.6039C16.388 23.2059 16.936 22.9599 17.543 22.9599C18.15 22.9599 18.698 23.2059 19.095 23.6039L30.888 32.0559C32.713 33.3699 34.539 34.6849 36.364 35.9629C36.696 36.2189 37.117 36.3739 37.575 36.3739C38.476 36.3739 39.237 35.7759 39.482 34.9549L39.486 34.9409C39.537 34.7709 39.566 34.5759 39.566 34.3729C39.566 33.5999 39.141 32.9259 38.511 32.5729L38.501 32.5679C35.9577 30.7793 33.469 28.9843 31.035 27.1829L30.469 26.7629L30.798 26.5069L40.966 19.2049C41.363 18.8069 41.911 18.5609 42.518 18.5609C43.125 18.5609 43.673 18.8069 44.07 19.2049L61.412 31.6549L62.051 32.0749L62.066 4.14392Z"/>
            <path d="M26.962 9.34597C29.987 9.34597 32.438 11.798 32.438 14.822C32.484 15.09 32.511 15.399 32.511 15.713C32.511 18.738 30.059 21.189 27.035 21.189C24.011 21.189 21.559 18.737 21.559 15.713C21.559 15.398 21.586 15.09 21.637 14.789L21.632 14.821C21.632 14.82 21.632 14.82 21.632 14.819C21.632 11.846 24.001 9.42597 26.955 9.34497H26.963L26.962 9.34597Z"/>
        </g>
   </symbol>

   <symbol id="mic" viewBox="0 0 32 50">
        <g clip-path="url(#clip0_6_107)">
            <path d="M4.371 50V47.102H14.587V40.93C6.391 40.113 0.038 33.272 0 24.938V24.934H2.881C2.895 29.331 5.074 33.216 8.407 35.581L8.448 35.608C10.52 37.153 13.131 38.082 15.959 38.082C16.196 38.082 16.432 38.075 16.667 38.063L16.634 38.064C23.627 37.725 29.177 32.004 29.24 24.973V24.967H32.138C32.138 25 32.138 25.039 32.138 25.078C32.138 29.228 30.531 33.003 27.905 35.815L27.913 35.806C25.306 38.656 21.696 40.55 17.645 40.926L17.582 40.931V47.021H27.831V49.968L4.371 50Z"/>
            <path d="M26.326 11.706V16.11H19.04V19.024H26.309V23.412H19.056V26.359H26.194C25.475 31.369 21.212 35.177 16.06 35.177C10.908 35.177 6.64496 31.369 5.93196 26.414L5.92596 26.359H13.097V23.461H5.86096V19.057H13.097V16.126H5.86096V11.755H13.097V8.792H5.95896C6.72396 3.832 10.963 0.0780029 16.078 0.0780029C21.187 0.0780029 25.422 3.823 26.187 8.718L26.194 8.776H19.039V11.707L26.326 11.706Z"/>
        </g>
   </symbol>

</svg>
